PathFileType	4	(X/Y/Z)	 s04c0402.trc
DataRate	CameraRate	NumFrames	NumMarkers	Units	OrigDataRate	OrigDataStartFrame	OrigNumFrames
200	200	6	50	mm	200	251	2000
Frame#	Time	racr			lacr			c7			jug			rlel			rdr			llel			ldr			s2			lic			ric			lasi			rasi			rpsi			lpsi			rgt			lgt			rth1			rth2			rth3			rth4			rlfc			rmfc			rsh1			rsh2			rsh3			rsh4			rlmal			rmmal			rcal			rtoe			rmt5			lth1			lth2			lth4			lth3			llfc			lmfc			lsh1			lsh2			lsh3			lsh4			llmal			lmmal			lcal			ltoe			lmt5			SBIKE			LBIKE			RBIKE			
		X1	Y1	Z1	X2	Y2	Z2	X3	Y3	Z3	X4	Y4	Z4	X5	Y5	Z5	X6	Y6	Z6	X7	Y7	Z7	X8	Y8	Z8	X9	Y9	Z9	X10	Y10	Z10	X11	Y11	Z11	X12	Y12	Z12	X13	Y13	Z13	X14	Y14	Z14	X15	Y15	Z15	X16	Y16	Z16	X17	Y17	Z17	X18	Y18	Z18	X19	Y19	Z19	X20	Y20	Z20	X21	Y21	Z21	X22	Y22	Z22	X23	Y23	Z23	X24	Y24	Z24	X25	Y25	Z25	X26	Y26	Z26	X27	Y27	Z27	X28	Y28	Z28	X29	Y29	Z29	X30	Y30	Z30	X31	Y31	Z31	X32	Y32	Z32	X33	Y33	Z33	X34	Y34	Z34	X35	Y35	Z35	X36	Y36	Z36	X37	Y37	Z37	X38	Y38	Z38	X39	Y39	Z39	X40	Y40	Z40	X41	Y41	Z41	X42	Y42	Z42	X43	Y43	Z43	X44	Y44	Z44	X45	Y45	Z45	X46	Y46	Z46	X47	Y47	Z47	X48	Y48	Z48	X49	Y49	Z49	X50	Y50	Z50	
251	1.2550	482.491312	1481.259916	-95.906228	489.853333	1479.197730	-387.694869	450.512894	1535.067802	-250.578034	482.229643	1388.027068	-245.904918	498.500990	1161.883067	-6.722491	699.851546	943.411774	-63.660837	510.647076	1189.200117	-491.004095	699.246356	946.394036	-455.388359	-44.866968	1188.049228	-270.736319	123.221455	1194.747464	-417.408423	116.737099	1165.692768	-107.113698	152.655838	1145.631467	-376.150797	156.977688	1113.442963	-153.806176	-10.183552	1220.599562	-222.953572	-14.952395	1232.099727	-298.879494	58.979905	1108.428433	-94.980547	72.455224	1130.910739	-467.474647	140.762382	965.061917	-78.615652	200.697308	900.396466	-87.831749	223.308254	818.184567	-93.304404	229.057798	918.254236	-105.605888	275.182863	683.153211	-120.636080	250.828869	668.699780	-232.328857	202.812089	578.774169	-96.812070	175.894825	492.228248	-112.530576	109.883278	436.884841	-118.407300	202.952372	479.830694	-137.497035	37.899687	305.144055	-129.069983	59.670299	308.189634	-214.326945	-38.465859	291.679515	-170.502351	244.962826	193.709748	-152.136095	172.271419	189.818536	-99.548815	132.841181	1076.776924	-474.991533	218.089287	1064.833125	-479.191853	232.518394	1094.832002	-462.625240	288.166052	1010.488259	-490.971417	424.766679	921.338905	-470.310243	461.067366	904.251308	-362.677821	391.061170	809.620866	-488.145959	371.643340	727.767329	-462.880863	312.154213	661.902910	-456.257008	396.696727	720.659520	-433.726987	238.489184	536.811110	-438.639983	237.548927	544.936513	-350.503860	155.995455	516.743373	-393.172726	455.764366	494.039874	-402.855873	383.656083	458.393067	-463.107853	-177.508081	936.488068	-279.970972	-2.827132	85.990679	-485.013891	-15.047303	80.476918	-84.247357	
252	1.2600	482.404207	1481.275261	-95.873713	489.786930	1479.210510	-387.774972	450.386269	1535.155949	-250.548776	482.183883	1388.113440	-245.882204	498.479641	1161.861538	-6.750204	699.834380	943.429207	-63.666321	510.680406	1189.204259	-491.006222	699.281123	946.385654	-455.403996	-44.878935	1188.027106	-270.715553	123.192482	1194.758395	-417.390204	116.667983	1165.669324	-107.200105	152.631816	1145.662354	-376.157841	157.007623	1113.463840	-153.793859	-10.209834	1220.577865	-222.983838	-14.985545	1232.082984	-298.883465	58.978799	1108.434201	-95.004182	72.431915	1130.887579	-467.474845	140.811487	965.065061	-78.649023	200.720018	900.420419	-87.863930	223.337778	818.206574	-93.343972	229.065634	918.254294	-105.659892	275.162448	683.126792	-120.658539	250.794799	668.685030	-232.351996	202.811199	578.769551	-96.839856	175.896630	492.196851	-112.546424	109.893641	436.851768	-118.418726	202.956198	479.815843	-137.511240	37.935648	305.089959	-129.057901	59.693544	308.137362	-214.340699	-38.442141	291.646247	-170.498206	245.002943	193.675747	-152.147983	172.305735	189.819141	-99.537620	132.828636	1076.780218	-474.988750	218.063804	1064.856261	-479.218989	232.495233	1094.830101	-462.642216	288.163814	1010.499447	-490.977789	424.770654	921.367912	-470.344671	461.095981	904.293654	-362.695320	391.046833	809.647403	-488.177855	371.629572	727.815712	-462.897619	312.148390	661.923573	-456.260825	396.689676	720.707662	-433.735988	238.457643	536.853496	-438.648822	237.526148	544.997214	-350.502360	155.969002	516.803070	-393.171212	455.729501	494.068397	-402.854824	383.627120	458.412684	-463.104748	-177.509596	936.474241	-279.955460	-2.838614	86.003140	-485.006875	-15.054269	80.456885	-84.244747	
253	1.2650	482.309119	1481.270445	-95.817051	489.687145	1479.216958	-387.828436	450.249242	1535.282720	-250.548989	482.131795	1388.207224	-245.905438	498.439066	1161.833337	-6.751302	699.829664	943.429527	-63.680008	510.680137	1189.219522	-491.000829	699.288590	946.386486	-455.404263	-44.914919	1188.011592	-270.782293	123.178032	1194.781720	-417.417158	116.724324	1165.750990	-107.140973	152.611046	1145.677552	-376.151971	156.992093	1113.473222	-153.833407	-10.239274	1220.576634	-222.977128	-15.007395	1232.064161	-298.908108	58.981371	1108.458687	-95.005236	72.402819	1130.848092	-467.457186	140.843530	965.074697	-78.677816	200.754490	900.407742	-87.912946	223.371920	818.195832	-93.383177	229.103084	918.262647	-105.716846	275.164162	683.096907	-120.697496	250.773928	668.666250	-232.383850	202.807955	578.719102	-96.869354	175.921156	492.173326	-112.564918	109.895483	436.847444	-118.421784	202.965480	479.795405	-137.542099	37.947029	305.066192	-129.074731	59.706794	308.127964	-214.353792	-38.421844	291.620830	-170.508787	245.039860	193.633843	-152.148773	172.327351	189.769243	-99.527361	132.792402	1076.772839	-474.979846	218.045815	1064.851898	-479.222656	232.479963	1094.844516	-462.644750	288.142913	1010.518393	-490.973139	424.769702	921.395639	-470.354567	461.103864	904.307261	-362.736426	391.052446	809.690893	-488.187706	371.624387	727.833271	-462.915822	312.139305	661.958178	-456.263194	396.683869	720.737587	-433.751812	238.450920	536.884985	-438.639421	237.506428	545.030043	-350.481480	155.950376	516.854176	-393.160042	455.709099	494.081932	-402.849542	383.604970	458.432377	-463.102980	-177.513792	936.482113	-279.962365	-2.843772	86.008376	-485.022061	-15.068135	80.468329	-84.250977	
254	1.2700	482.203853	1481.274618	-95.798055	489.614119	1479.248918	-387.913967	450.118693	1535.387947	-250.552388	482.071768	1388.295692	-245.873162	498.410142	1161.807263	-6.761796	699.826382	943.439935	-63.677318	510.677257	1189.246485	-491.007982	699.266498	946.404940	-455.404418	-44.925562	1187.983814	-270.759815	123.122339	1194.798550	-417.401475	116.726449	1165.776026	-107.142331	152.577684	1145.696425	-376.121661	156.982730	1113.503111	-153.817634	-10.270778	1220.566243	-222.993366	-15.069005	1232.050504	-298.898250	59.009359	1108.445279	-95.012072	72.370299	1130.826595	-467.462301	140.881621	965.082616	-78.696592	200.795499	900.388550	-87.934897	223.383438	818.185787	-93.408570	229.126746	918.231286	-105.748618	275.176381	683.075721	-120.713751	250.756426	668.652759	-232.394057	202.800653	578.697590	-96.878386	175.906495	492.160118	-112.583081	109.904282	436.806674	-118.457411	202.958532	479.774063	-137.555119	37.971321	305.033804	-129.063898	59.738815	308.086149	-214.344359	-38.397688	291.581204	-170.499695	245.087261	193.628298	-152.148711	172.365041	189.734903	-99.535013	132.780201	1076.749294	-474.970207	218.023199	1064.876980	-479.236969	232.444449	1094.854538	-462.667553	288.133465	1010.528600	-490.972773	424.778051	921.426818	-470.376869	461.118349	904.366955	-362.776483	391.046224	809.713380	-488.190304	371.614589	727.881261	-462.939166	312.115531	661.989707	-456.274531	396.672003	720.797653	-433.780704	238.422516	536.950386	-438.660346	237.468108	545.096470	-350.499909	155.922665	516.905727	-393.149072	455.719867	494.119686	-402.901793	383.572319	458.475053	-463.117876	-177.520551	936.482233	-279.965845	-2.839249	86.003118	-485.013169	-15.052778	80.472427	-84.243628	
255	1.2750	482.099423	1481.278023	-95.727430	489.532357	1479.275009	-387.975214	449.967323	1535.493358	-250.567043	481.997120	1388.412725	-245.898805	498.378095	1161.805677	-6.760425	699.818558	943.412829	-63.677638	510.657664	1189.278554	-491.026925	699.257041	946.401889	-455.395581	-44.965090	1187.962718	-270.760766	123.049466	1194.798821	-417.410985	116.668046	1165.751056	-107.235640	152.533987	1145.717828	-376.126486	156.973909	1113.529860	-153.844076	-10.296922	1220.538822	-223.001169	-15.127987	1232.024576	-298.915008	59.037126	1108.439816	-95.013174	72.336851	1130.809361	-467.453726	140.913898	965.081697	-78.725419	200.812303	900.378123	-87.959963	223.406706	818.181197	-93.424463	229.157852	918.212290	-105.778225	275.165452	683.055336	-120.749136	250.747118	668.613207	-232.415256	202.814597	578.679033	-96.902882	175.915358	492.128971	-112.604296	109.907161	436.788051	-118.446640	203.018381	479.752248	-137.540235	38.004729	304.990365	-129.059507	59.774515	308.052726	-214.342778	-38.368454	291.550542	-170.500190	245.111180	193.609968	-152.140790	172.403095	189.713941	-99.544205	132.757711	1076.723221	-474.957986	218.016874	1064.876637	-479.250319	232.428981	1094.871315	-462.682918	288.120923	1010.554228	-490.980043	424.770742	921.464936	-470.402194	461.107221	904.402028	-362.818167	391.037936	809.748925	-488.210204	371.607649	727.909976	-462.936057	312.107249	662.031853	-456.281235	396.656388	720.823294	-433.769224	238.408827	536.982558	-438.665946	237.460958	545.143853	-350.502814	155.914842	516.973779	-393.160203	455.688150	494.129228	-402.908778	383.545451	458.481537	-463.108343	-177.519599	936.475198	-279.969425	-2.840316	86.001245	-485.021856	-15.053499	80.476449	-84.253026	
256	1.2800	481.965436	1481.263698	-95.693097	489.450642	1479.336728	-388.037100	449.817560	1535.587650	-250.553118	481.930299	1388.495178	-245.884422	498.367836	1161.791189	-6.763811	699.806427	943.441629	-63.690909	510.635696	1189.320181	-491.017876	699.241836	946.399842	-455.358601	-44.987155	1187.950406	-270.797252	123.012648	1194.826428	-417.430115	116.653981	1165.767753	-107.250754	152.500236	1145.753462	-376.093219	156.992444	1113.529488	-153.849005	-10.352713	1220.502983	-222.977991	-15.174259	1232.021895	-298.899777	59.041788	1108.425426	-95.003047	72.314490	1130.792730	-467.444549	140.939698	965.047223	-78.729847	200.828073	900.307574	-88.045857	223.426821	818.145603	-93.434741	229.184912	918.203930	-105.804547	275.179142	683.044891	-120.772439	250.759907	668.594346	-232.433118	202.806127	578.674502	-96.913759	175.909760	492.110882	-112.603613	109.934440	436.771541	-118.475369	203.011073	479.703535	-137.571985	38.020101	304.974825	-129.046645	59.771400	308.044083	-214.351655	-38.358237	291.535208	-170.502343	245.153620	193.594488	-152.144058	172.442139	189.629913	-99.544829	132.737536	1076.749257	-474.966901	217.998035	1064.885480	-479.250020	232.411238	1094.884554	-462.702602	288.119682	1010.573577	-490.977947	424.774832	921.501409	-470.420772	461.111103	904.428736	-362.839906	391.037348	809.807255	-488.220650	371.603207	727.953412	-462.967603	312.113895	662.072939	-456.271386	396.660226	720.870464	-433.782202	238.389861	537.036385	-438.659744	237.447095	545.180822	-350.496929	155.901543	517.030567	-393.155445	455.679613	494.142370	-402.902054	383.529584	458.502749	-463.097542	-177.505614	936.489514	-279.943123	-2.827982	86.010027	-485.025782	-15.063963	80.484156	-84.271449	
